<?xml version="1.0" encoding="UTF-8"?>
<svg version="1.1" viewBox="0 0 1000 1125" xmlns="http://www.w3.org/2000/svg">
<g>
<svg width="1e3" height="1125" data-background-color="#0c1d36" viewBox="0 0 320 360" xmlns="http://www.w3.org/2000/svg" xmlns:xlink="http://www.w3.org/1999/xlink">
<g>
<svg width="320" height="360" viewBox="0 0 320 360">
<svg/>
<svg width="320" height="360" viewBox="0 0 320 360">
<path d="m160 340c88.258 0 160-71.742 160-160s-71.742-160-160-160-160 71.742-160 160 71.742 160 160 160zm5.161-10.632v-10.323c72.671-2.684 131.2-61.213 133.88-133.88h10.323c-2.684 78.452-65.755 141.52-144.21 144.21zm0-298.74c78.452 2.684 141.52 65.755 144.21 144.21h-10.323c-2.684-72.671-61.213-131.2-133.88-133.88zm123.87 149.37c0 71.123-57.91 129.03-129.03 129.03-71.123 0-129.03-57.91-129.03-129.03 0-71.123 57.91-129.03 129.03-129.03 71.123 0 129.03 57.91 129.03 129.03zm-134.19-149.37v10.323c-72.671 2.684-131.2 61.213-133.88 133.88h-10.323c2.684-78.452 65.755-141.52 144.21-144.21zm-133.88 154.53c2.684 72.671 61.213 131.2 133.88 133.88v10.323c-78.452-2.684-141.52-65.755-144.21-144.21z" fill="#f9cc0b" font-family="none" font-size="none" font-weight="none" stroke-dasharray="" stroke-miterlimit="10" text-anchor="none" style="mix-blend-mode:normal" data-fill-palette-color="tertiary" xmlns="http://www.w3.org/2000/svg"/>
<g transform="translate(64 110.75)">
<svg width="192" height="138.5" viewBox="0 0 191.99999999999997 138.49842271293375">
<svg width="192" height="138.5" viewBox="0 0 191.99999999999997 138.49842271293375">
<svg width="192" height="138.5" viewBox="0 0 192.00000000000003 138.49842271293377">
<svg width="192" height="138.5" viewBox="0 0 192.00000000000003 138.49842271293377">
<svg width="192" height="138.5" viewBox="0 0 192.00000000000003 138.49842271293377">
<svg width="192" height="138.5" viewBox="0 0 192.00000000000003 138.49842271293377">
<g>
<svg width="192" height="138.5" data-palette-color="#f9cc0b" viewBox="1.9500000476837158 -33.900001525878906 47.54999923706055 34.30000305175781">
<path class="undefined-text-0" d="m24.2-9.8q0 4.55-3.35 7.37-3.35 2.83-8.9 2.83-5.95 0-9.7-2.1v-7.75q4.55 3.3 9.7 3.3 1.75 0 2.9-0.93 1.15-0.92 1.15-2.42 0-0.5-0.15-0.95t-0.55-0.85-0.77-0.68q-0.38-0.27-1.1-0.65-0.73-0.37-1.23-0.62t-1.47-0.7q-0.98-0.45-1.58-0.7-3.25-1.5-5.22-3.7-1.98-2.2-1.98-5.85 0-4.35 3.2-7.03 3.2-2.67 8.85-2.67 5.05 0 8.7 1.7v7.2q-4.05-2.35-8.4-2.35-1.95 0-2.97 0.8-1.03 0.8-1.03 2.05t1.25 2.22q1.25 0.98 3.75 2.08 1.55 0.7 2.58 1.22 1.02 0.53 2.35 1.45 1.32 0.93 2.1 1.95 0.77 1.03 1.32 2.53t0.55 3.25zm23.65-9.05v6.15h-11.15v12.7h-7.75v-33.7h20.55v6.15h-12.8v8.7h11.15z" fill="#f9cc0b" data-fill-palette-color="primary"/>
</svg>
</g>
</svg>
</svg>
</svg>
</svg>
</svg>
</svg>
</g>
</svg>
</svg>
<rect width="320" height="360" fill="none" visibility="hidden"/>
</g>
</svg>
</g>
</svg>
